#!OML:ASF H:\Dans Jumps\Project 1\Capture day 1\Session 1\subject.ASF
:FULLY-SPECIFIED
:DEGREES
149
root 0.184284 17.4621 -14.1753 9.23161 0.623831 -1.57775
lowerback 1.63006 -0.551041 0.411331
upperback 3.4629 -0.775491 1.95499
thorax 2.66255 -0.40544 1.77211
lowerneck -13.6273 0.568556 -1.76443
upperneck 27.6599 1.15597 0.373913
head 11.1946 0.38364 0.594815
rclavicle -3.97569e-015 3.4191e-014
rhumerus -22.2615 -20.4141 -76.8847
rradius 28.3393
rwrist 29.0778
rhand -18.7213 -25.4877
rfingers 7.12502
rthumb 7.57412 -55.3321
lclavicle -3.97569e-015 3.4191e-014
lhumerus -19.4392 -0.890644 86.7386
lradius 25.1045
lwrist 6.58286
lhand -25.1244 -3.90907
lfingers 7.12502
lthumb 1.3914 26.0661
rfemur -20.4314 -3.22582 21.1987
rtibia 27.0093
rfoot -14.5515 -4.02529
rtoes 9.22996
lfemur -20.5919 7.85115 -19.8367
ltibia 25.5677
lfoot -12.0588 5.49449
ltoes -1.19392
150
root 0.185804 17.4491 -14.2081 9.42185 0.541945 -1.55755
lowerback 1.87967 -0.526517 0.363435
upperback 3.51444 -0.739649 1.94807
thorax 2.57497 -0.388681 1.7943
lowerneck -13.6579 0.575259 -1.75842
upperneck 27.3316 1.16457 0.364436
head 11.0761 0.389798 0.58953
rclavicle 3.77691e-015 -1.59028e-015
rhumerus -22.1843 -20.3286 -76.9013
rradius 28.4051
rwrist 28.9951
rhand -18.7446 -25.4948
rfingers 7.12502
rthumb 7.55167 -55.34
lclavicle 3.77691e-015 -1.59028e-015
lhumerus -19.4394 -1.02033 86.6987
lradius 25.2909
lwrist 6.86876
lhand -25.1709 -3.90714
lfingers 7.12502
lthumb 1.34649 26.0684
rfemur -21.0555 -3.15575 21.1821
rtibia 27.5363
rfoot -14.6558 -4.04012
rtoes 9.11345
lfemur -21.2011 7.95915 -19.9267
ltibia 26.083
lfoot -12.1631 5.50193
ltoes -1.28204
151
root 0.187124 17.4352 -14.2418 9.62759 0.461537 -1.54187
lowerback 2.13361 -0.503049 0.318229
upperback 3.5621 -0.705359 1.94241
thorax 2.481 -0.372588 1.81612
lowerneck -13.6909 0.583131 -1.75355
upperneck 26.9962 1.17506 0.355007
head 10.9561 0.396755 0.584704
rclavicle 9.93923e-017 1.98785e-015
rhumerus -22.1169 -20.2391 -76.9171
rradius 28.4683
rwrist 28.9036
rhand -18.7873 -25.5052
rfingers 7.12502
rthumb 7.51045 -55.3519
lclavicle 9.93923e-017 1.98785e-015
lhumerus -19.4439 -1.14009 86.65
lradius 25.4668
lwrist 7.16893
lhand -25.1915 -3.86766
lfingers 7.12502
lthumb 1.32664 26.108
rfemur -21.7071 -3.08573 21.1718
rtibia 28.0746
rfoot -14.7649 -4.05778
rtoes 8.98356
lfemur -21.8458 8.07091 -20.0159
ltibia 26.6196
lfoot -12.2711 5.50718
ltoes -1.38299
152
root 0.1883 17.4205 -14.2764 9.85257 0.386355 -1.5306
lowerback 2.38984 -0.482258 0.276023
upperback 3.60366 -0.674766 1.93881
thorax 2.37961 -0.358221 1.83824
lowerneck -13.7368 0.593559 -1.74576
upperneck 26.6647 1.19053 0.339004
head 10.8409 0.405423 0.577792
rclavicle -4.37326e-015 9.14409e-015
rhumerus -22.0581 -20.1505 -76.9308
rradius 28.5243
rwrist 28.8027
rhand -18.8466 -25.5216
rfingers 7.12502
rthumb 7.45322 -55.3703
lclavicle -4.37326e-015 9.14409e-015
lhumerus -19.4554 -1.24308 86.5932
lradius 25.6262
lwrist 7.45464
lhand -25.2123 -3.82498
lfingers 7.12502
lthumb 1.30651 26.1508
rfemur -22.39 -3.01993 21.1685
rtibia 28.6234
rfoot -14.8768 -4.07735
rtoes 8.85398
lfemur -22.5305 8.1818 -20.1044
ltibia 27.1787
lfoot -12.3825 5.51134
ltoes -1.49206
153
root 0.189385 17.4049 -14.3118 10.0937 0.317436 -1.52503
lowerback 2.64769 -0.462807 0.240323
upperback 3.64098 -0.646063 1.93664
thorax 2.273 -0.34459 1.85804
lowerneck -13.7945 0.604272 -1.73139
upperneck 26.3342 1.20741 0.313999
head 10.7292 0.414292 0.566826
rclavicle -4.96962e-015 3.18055e-014
rhumerus -22.008 -20.0669 -76.9411
rradius 28.5703
rwrist 28.6928
rhand -18.9116 -25.5589
rfingers 7.12502
rthumb 7.39045 -55.4098
lclavicle -4.96962e-015 3.18055e-014
lhumerus -19.4758 -1.32725 86.53
lradius 25.7709
lwrist 7.711
lhand -25.2401 -3.7614
lfingers 7.12502
lthumb 1.2797 26.2145
rfemur -23.1 -2.96138 21.1736
rtibia 29.183
rfoot -14.9912 -4.09669
rtoes 8.72745
lfemur -23.25 8.29019 -20.1903
ltibia 27.7591
lfoot -12.4982 5.51433
ltoes -1.59693
154
root 0.190264 17.3884 -14.3481 10.353 0.261774 -1.52667
lowerback 2.90726 -0.447004 0.2139
upperback 3.67255 -0.622206 1.93646
thorax 2.15964 -0.333103 1.87459
lowerneck -13.8565 0.615995 -1.71049
upperneck 25.9973 1.2265 0.279763
head 10.6168 0.423772 0.55178
rclavicle -3.77691e-015 -4.37326e-015
rhumerus -21.9627 -19.9995 -76.9459
rradius 28.5946
rwrist 28.5879
rhand -18.9862 -25.6092
rfingers 7.12502
rthumb 7.31844 -55.4626
lclavicle -3.77691e-015 -4.37326e-015
lhumerus -19.5035 -1.40631 86.4616
lradius 25.8961
lwrist 7.94918
lhand -25.2905 -3.71358
lfingers 7.12502
lthumb 1.23097 26.2626
rfemur -23.8385 -2.91292 21.1903
rtibia 29.7521
rfoot -15.1077 -4.11753
rtoes 8.62358
lfemur -24.0067 8.39263 -20.2715
ltibia 28.3585
lfoot -12.6169 5.51349
ltoes -1.7034
